<svg width="1600" height="800" xmlns="http://www.w3.org/2000/svg">
  <defs>
    <linearGradient id="bg3" x1="0%" y1="0%" x2="100%" y2="100%">
      <stop offset="0%" style="stop-color:#f0f8f4;stop-opacity:1" />
      <stop offset="100%" style="stop-color:#e0f0e8;stop-opacity:1" />
    </linearGradient>
  </defs>
  <rect width="1600" height="800" fill="url(#bg3)"/>
  
  <!-- Calendar with checkmark -->
  <g transform="translate(500, 300)">
    <rect x="-100" y="-120" width="200" height="240" fill="#ffffff" stroke="#1a1a1a" stroke-width="4" rx="8"/>
    <rect x="-100" y="-120" width="200" height="60" fill="#2d7a3d" rx="8 8 0 0"/>
    <text x="0" y="-80" font-family="Arial, sans-serif" font-size="32" font-weight="bold" fill="#ffffff" text-anchor="middle">7 DAYS</text>
    <circle cx="0" cy="60" r="30" fill="#2d7a3d"/>
    <path d="M -10 60 L -2 68 L 10 55" stroke="#ffffff" stroke-width="5" fill="none" stroke-linecap="round" stroke-linejoin="round"/>
  </g>
  
  <!-- Money/cash icon -->
  <g transform="translate(1100, 300)">
    <!-- Dollar bills stack -->
    <rect x="-60" y="-100" width="120" height="200" fill="#2d7a3d" stroke="#1a1a1a" stroke-width="3" rx="4"/>
    <rect x="-50" y="-90" width="100" height="180" fill="#4a9d5f" stroke="#2d7a3d" stroke-width="2" rx="2"/>
    <text x="0" y="20" font-family="Arial, sans-serif" font-size="48" font-weight="bold" fill="#ffffff" text-anchor="middle">$</text>
    
    <!-- Second bill slightly offset -->
    <rect x="-55" y="-95" width="110" height="170" fill="#2d7a3d" stroke="#1a1a1a" stroke-width="2" rx="2" opacity="0.8"/>
    <text x="0" y="15" font-family="Arial, sans-serif" font-size="40" font-weight="bold" fill="#ffffff" text-anchor="middle" opacity="0.8">$</text>
  </g>
  
  <!-- Arrow between calendar and money -->
  <path d="M 650 300 L 950 300 L 930 280 L 950 300 L 930 320 Z" fill="#1a1a1a" stroke="#1a1a1a" stroke-width="4"/>
  
  <!-- Text -->
  <text x="800" y="650" font-family="Arial, sans-serif" font-size="48" font-weight="bold" fill="#1a1a1a" text-anchor="middle">Quick Closing &amp; Get Paid</text>
  <text x="800" y="700" font-family="Arial, sans-serif" font-size="32" fill="#666" text-anchor="middle">Close in as little as 7 days and receive your cash</text>
</svg>




